<svg width="94" height="94" viewBox="0 0 94 94" fill="none" xmlns="http://www.w3.org/2000/svg">
<path d="M45.1243 2.06901C45.7686 0.327769 48.2314 0.327774 48.8757 2.06901L60.1854 32.633C60.388 33.1804 60.8196 33.612 61.367 33.8146L91.931 45.1243C93.6722 45.7686 93.6722 48.2314 91.931 48.8757L61.367 60.1854C60.8196 60.388 60.388 60.8196 60.1854 61.367L48.8757 91.931C48.2314 93.6722 45.7686 93.6722 45.1243 91.931L33.8146 61.367C33.612 60.8196 33.1804 60.388 32.633 60.1854L2.06901 48.8757C0.327769 48.2314 0.327774 45.7686 2.06901 45.1243L32.633 33.8146C33.1804 33.612 33.612 33.1804 33.8146 32.633L45.1243 2.06901Z" fill="black"/>
</svg>
